<?xml version="1.0" encoding="UTF-8" standalone="no"?>
<svg
   width="512"
   height="512"
   version="1.1"
   id="svg20"
   sodipodi:docname="icon.svg"
   inkscape:version="1.2.2 (b0a8486541, 2022-12-01)"
   xmlns:inkscape="http://www.inkscape.org/namespaces/inkscape"
   xmlns:sodipodi="http://sodipodi.sourceforge.net/DTD/sodipodi-0.dtd"
   xmlns="http://www.w3.org/2000/svg"
   xmlns:svg="http://www.w3.org/2000/svg">
  <defs
     id="defs6" />
  <sodipodi:namedview
     id="namedview4"
     pagecolor="#505050"
     bordercolor="#ffffff"
     borderopacity="1"
     inkscape:pageshadow="0"
     inkscape:pageopacity="0"
     inkscape:pagecheckerboard="1"
     showgrid="true"
     inkscape:zoom="1.7402344"
     inkscape:cx="287.31762"
     inkscape:cy="231.29068"
     inkscape:window-width="1920"
     inkscape:window-height="1080"
     inkscape:window-x="1920"
     inkscape:window-y="0"
     inkscape:window-maximized="1"
     inkscape:current-layer="svg20"
     inkscape:showpageshadow="0"
     inkscape:deskcolor="#505050">
    <inkscape:grid
       type="xygrid"
       id="grid847"
       spacingx="16"
       spacingy="16"
       empspacing="4"
       empcolor="#ff3f3f"
       empopacity="0.25098039"
       color="#0098ff"
       opacity="0.44705882" />
  </sodipodi:namedview>
  <circle
     id="path887"
     style="display:inline;fill:#457288;stroke:none;fill-opacity:1"
     inkscape:label="Circle"
     r="224"
     cy="256"
     cx="256" />
  <path
     d="m 248.69037,187.08814 -16.45261,-11.67432 -4.96226,4.9645 -3.30218,-3.29882 25.76581,-25.75011 3.29097,3.29433 -4.95328,4.95329 11.67543,16.45261 -11.06188,11.05852"
     style="fill:#fbf5ac;fill-opacity:1;fill-rule:nonzero;stroke:none;stroke-width:0.112167"
     id="path186" />
  <path
     id="path188"
     style="fill:#231f20;fill-opacity:1;fill-rule:nonzero;stroke:none;stroke-width:0.112167"
     d="m 248.32617,145.26367 c -10.60997,10.60748 -21.22041,21.21449 -31.83008,31.82227 3.59478,3.58491 7.19037,7.169 10.78516,10.7539 1.84393,-1.84422 3.68878,-3.68752 5.5332,-5.53125 5.48567,3.89259 10.97142,7.78508 16.45703,11.67774 5.79029,-5.79565 11.5831,-11.58878 17.375,-17.38281 -3.89394,-5.48211 -7.78496,-10.96629 -11.67773,-16.44922 1.84369,-1.84317 3.68612,-3.68759 5.53125,-5.5293 -3.58622,-3.59216 -7.17317,-7.18361 -10.75781,-10.77734 -0.47201,0.472 -0.94401,0.94401 -1.41602,1.41601 z m 1.875,9.35938 c -1.57807,1.57752 -3.15485,3.15635 -4.73437,4.73242 3.89191,5.48438 7.78385,10.96875 11.67578,16.45312 -2.89063,2.89063 -5.78125,5.78125 -8.67188,8.67188 -5.48437,-3.89193 -10.96874,-7.78387 -16.45312,-11.67578 -1.57981,1.58295 -3.16142,3.1641 -4.74219,4.74609 -0.85154,-0.44046 -0.0257,-0.88064 0.37616,-1.32089 7.36224,-7.35723 14.72449,-14.71446 22.08673,-22.07169 0.1543,0.15495 0.3086,0.3099 0.46289,0.46485 z" />
  <path
     d="m 313.78632,251.46958 -0.41501,-0.39931 -59.03559,-59.03334 10.48871,-10.4831 68.72567,68.72903 0.67748,0.66403 3.57139,3.57138 -10.39112,10.5863 -13.62153,-13.63499"
     style="fill:#fbf5ac;fill-opacity:1;fill-rule:nonzero;stroke:none;stroke-width:0.112167"
     id="path968" />
  <path
     d="m 485.37335,335.37701 -0.93211,-0.93322 -33.36399,33.36735 5.11032,5.10134 -10.48759,10.49207 -5.11143,-5.11368 -33.35838,33.36511 0.93434,0.93435 -5.50177,5.50851 -4.31954,-4.32066 5.50402,-5.5029 0.9422,0.93996 33.35389,-33.37297 -25.45623,-25.47642 -0.50924,-0.48793 -26.80672,-26.83027 -0.63599,-0.61019 -12.87225,-12.87001 10.48422,-10.48871 0.93659,0.94333 5.85062,5.83379 26.81009,26.81906 0.6214,0.61131 4.99703,5.0116 0.49914,0.48456 15.98039,15.99273 0.49353,0.48232 10.10174,10.10846 33.34492,-33.36286 -0.92874,-0.93884 5.50738,-5.50402 4.3173,4.31506 -5.50514,5.50177"
     style="fill:#fbf5ac;fill-opacity:1;fill-rule:nonzero;stroke:none;stroke-width:0.112167"
     id="path970" />
  <path
     d="m 365.62192,311.08955 -0.90855,-0.44642 -15.16606,15.16831 -5.06993,-5.0677 -3.01392,3.14291 -0.1189,0.29837 c -37.13615,93.43262 -95.83524,102.47663 -96.42523,102.55739 -7.57462,1.95506 -15.42405,2.95447 -23.25665,2.95447 -42.8746,0 -77.39838,-29.89019 -90.25269,-42.74225 -2.87483,-2.87932 -4.56967,-4.8041 -4.87813,-5.15967 L 56.259419,311.5113 C -14.207297,234.52792 38.345274,161.52871 38.884796,160.80075 70.107521,108.76773 151.38575,103.14481 184.8821,103.14481 l 1.05548,0.006 19.52486,-19.52598 19.40148,19.40148 -49.05387,49.04826 -7.45011,-7.44787 -0.98482,0.35332 c -45.98947,16.63769 -72.211799,37.25169 -77.942396,61.27443 -5.561226,23.32955 10.567226,40.83205 11.255926,41.56786 l 99.01516,99.01404 c 11.49933,11.49933 23.38002,17.33088 35.31008,17.33088 l 0.57317,-0.004 c 15.69661,-0.24116 25.78376,-10.65584 26.20551,-11.10002 l 57.50002,-57.50227 -8.35642,-8.35754 19.28033,-19.28706 13.78978,-13.77183 8.40128,-8.39905 38.6033,38.60442 -11.68777,11.68777 -10.54479,10.44721 -3.15638,4.60556"
     style="fill:#fd6067;fill-opacity:1;fill-rule:nonzero;stroke:none;stroke-width:0.112167"
     id="path972" />
  <path
     id="path974"
     style="fill:#231f20;fill-opacity:1;fill-rule:nonzero;stroke:none;stroke-width:0.112167"
     d="m 204.04297,77.570312 c -6.76498,6.764323 -13.52995,13.528646 -20.29492,20.292969 -20.87829,0.120818 -41.79011,2.087578 -62.20085,6.556549 -17.80171,3.93791 -35.320178,9.85893 -51.117839,19.07447 -12.727865,7.43267 -24.239151,17.22461 -32.689088,29.37087 -1.720246,2.4598 -3.261057,5.03731 -4.90687,7.54585 -6.132162,9.9877 -10.67686,20.91533 -13.818168,32.19411 -4.863658,17.49425 -5.932291,36.08938 -2.625386,53.96774 3.104986,17.13925 10.165934,33.42582 19.784098,47.89956 4.984759,7.48958 10.582382,14.57688 16.722985,21.15104 23.247332,23.25652 46.516223,46.49265 69.750078,69.76192 6.7769,7.53756 14.3752,14.31124 22.39355,20.49985 15.14084,11.60754 32.25268,20.98353 50.79843,25.78499 13.32366,3.4672 27.35728,4.32867 40.96718,2.14412 3.18578,-0.48357 6.32906,-1.20944 9.46336,-1.9374 6.95938,-1.20342 13.62115,-3.74988 19.96494,-6.80326 15.87275,-7.75067 29.6139,-19.36357 41.17209,-32.62571 15.16478,-17.4238 26.70573,-37.72728 35.78875,-58.89134 0.66286,-1.55253 1.31531,-3.10981 1.95508,-4.67187 1.46755,1.46669 2.93544,2.93305 4.40234,4.40039 5.51533,-5.51593 11.0299,-11.03261 16.54493,-16.54883 -0.15658,2.73961 2.25495,5.28573 5.00586,5.24023 0.76096,-0.2773 0.37232,0.53544 0.49804,0.95703 0.23537,2.64865 2.81314,4.80399 5.4668,4.51758 -0.30207,2.82403 2.16315,5.54882 5.00781,5.50195 0.76095,-0.27699 0.37896,0.53058 0.50195,0.95704 0.22645,2.66002 2.82574,4.8185 5.48633,4.51172 -0.3059,2.76727 2.04336,5.46775 4.83429,5.50224 0.72318,-0.21407 0.6781,0.22491 0.64032,0.79658 0.13786,2.67506 2.68228,4.91599 5.35605,4.6825 0.29909,0.15202 -2.9e-4,0.94586 0.18887,1.31946 0.40629,2.50863 2.9083,4.43226 5.41993,4.17968 -0.28973,2.81349 2.15722,5.5175 4.98828,5.48633 0.78279,-0.28722 0.40813,0.51102 0.52539,0.95703 0.22595,2.66048 2.81882,4.80191 5.47461,4.51758 -0.29728,2.77038 2.05707,5.46983 4.85186,5.50225 0.7201,-0.21461 0.68107,0.21849 0.63642,0.79072 0.14025,2.71399 2.75408,4.97215 5.46289,4.68359 1.32414,-0.098 2.61034,-0.7402 3.45898,-1.76562 0.54405,0.4441 1.01875,0.88826 0.204,1.33341 -8.43974,8.4442 -16.87949,16.8884 -25.31923,25.3326 -0.431,-0.26055 -0.862,-1.36566 -1.29301,-0.5859 -4.20721,4.20683 -8.4159,8.41218 -12.62301,12.61911 3.93099,3.93099 7.86198,7.86198 11.79297,11.79297 4.32326,-4.32454 8.64709,-8.64849 12.96875,-12.97461 -0.25702,-0.42917 -1.35625,-0.8596 -0.57422,-1.28719 8.51107,-8.513 17.02214,-17.02599 25.53321,-25.53899 1.70382,1.70309 3.40805,3.40576 5.11132,5.10938 5.98869,-5.98918 11.97616,-11.97957 17.96485,-17.96875 -1.70504,-1.69991 -3.40891,-3.40099 -5.11328,-5.10156 8.62825,-8.62696 17.25651,-17.25391 25.88476,-25.88086 0.42768,0.25909 0.85447,1.36273 1.28324,0.58004 4.20852,-4.20813 8.41851,-8.41478 12.62692,-12.62301 -3.93099,-3.93099 -7.86198,-7.86198 -11.79297,-11.79297 -4.32052,4.32076 -8.63846,8.64409 -12.95898,12.96484 0.25751,0.43051 1.357,0.86269 0.57621,1.29114 -8.51303,8.51689 -17.02607,17.03377 -25.5391,25.55066 -1.36263,-1.36523 -2.72526,-2.73047 -4.08789,-4.0957 1.01129,-1.28335 1.85717,-2.85112 1.61132,-4.54102 -0.22174,-2.6581 -2.82324,-4.81178 -5.47851,-4.5 0.30552,-2.73245 -1.97172,-5.40577 -4.72461,-5.5039 -0.71675,0.15388 -0.85578,-0.12333 -0.75,-0.80274 -0.13643,-2.7234 -2.77549,-4.98548 -5.49024,-4.66992 0.31057,-2.77167 -2.04839,-5.46876 -4.84014,-5.50615 -0.63617,0.14347 -0.73455,-0.12777 -0.63904,-0.73459 -0.10618,-2.7451 -2.75716,-5.06172 -5.49738,-4.73582 0.30136,-2.73419 -1.98324,-5.40636 -4.73828,-5.4961 -0.56794,0.0528 -0.9283,0.0401 -0.7435,-0.65064 -0.0445,-2.78629 -2.72868,-5.1629 -5.50259,-4.83373 0.29311,-2.67947 -1.88765,-5.30806 -4.58203,-5.48438 -0.5826,-0.001 -1.13218,0.13271 -0.89581,-0.6565 -0.0423,-2.74284 -2.64274,-5.10154 -5.37997,-4.83485 -0.24731,-0.21862 3.5e-4,-0.98908 -0.18907,-1.39927 -0.4265,-2.47858 -2.90931,-4.37265 -5.41601,-4.08203 0.0872,-1.07292 -0.1632,-2.17509 -0.73047,-3.0918 2.64192,-2.64193 5.28385,-5.28385 7.92578,-7.92578 -15.36018,-15.36118 -30.71991,-30.7228 -46.08008,-46.08399 -2.69566,2.69562 -5.3906,5.39195 -8.08594,8.0879 -0.7461,-0.36426 -1.67711,-0.43106 -2.42969,-0.42774 0.27893,-2.72116 -1.98849,-5.37144 -4.72851,-5.47266 -0.70748,0.14563 -0.86975,-0.10588 -0.75586,-0.78906 -0.12973,-2.72631 -2.76917,-4.99953 -5.48828,-4.68164 0.30017,-2.73551 -1.98859,-5.40802 -4.74414,-5.49609 -0.5572,0.0502 -0.91511,0.0442 -0.7369,-0.6331 -0.0346,-2.77595 -2.68745,-5.14601 -5.4506,-4.86104 -0.0757,-0.47813 -0.0186,-1.19157 -0.20508,-1.73828 -0.57938,-2.31184 -2.95122,-3.99022 -5.32617,-3.73438 0.31367,-2.81443 -2.12924,-5.53515 -4.96161,-5.51068 -0.80093,0.28321 -0.46511,-0.49101 -0.56574,-0.98151 -0.22498,-2.65764 -2.82105,-4.82011 -5.48046,-4.5039 0.29567,-2.68139 -1.88368,-5.31345 -4.58008,-5.49219 -0.57479,-0.003 -1.1264,0.13266 -0.88995,-0.65065 -0.0456,-2.73739 -2.6374,-5.09813 -5.37225,-4.83644 -0.27434,-0.1917 0.003,-0.99052 -0.19679,-1.39377 -0.42707,-2.47545 -2.90768,-4.37151 -5.41211,-4.08984 0.30718,-2.77565 -2.05947,-5.47648 -4.8558,-5.50727 -0.74831,0.22483 -0.64499,-0.3081 -0.63638,-0.87164 -0.18625,-2.6894 -2.79517,-4.91326 -5.48633,-4.5957 0.31095,-2.77934 -2.0624,-5.48231 -4.86167,-5.51115 -1.53244,-0.0748 -3.07682,0.60324 -4.06607,1.77482 -0.7552,-0.75521 -1.51041,-1.51042 -2.26562,-2.26563 -5.98573,5.98498 -11.97326,11.96815 -17.95899,17.95313 1.8618,1.86151 3.72268,3.72394 5.58399,5.58594 -0.95848,1.25439 -1.81159,2.73809 -1.625,4.3789 0.14131,2.71006 2.74786,4.96928 5.45508,4.67969 -0.13001,1.85683 0.83704,3.83015 2.49414,4.78906 0.89015,0.56216 2.00242,0.76376 3.01562,0.71485 -0.28789,2.81303 2.15306,5.52117 4.98633,5.49218 0.77544,-0.28993 0.39983,0.51547 0.51758,0.94727 0.22709,2.65878 2.81824,4.80829 5.47461,4.52344 -0.28491,2.69354 1.9249,5.31282 4.62695,5.48047 0.46516,0.0486 1.11165,-0.19561 0.84766,0.54101 -0.003,2.77932 2.60848,5.2031 5.38334,4.95473 0.28492,0.15673 -0.003,0.93925 0.18306,1.30894 0.40121,2.51577 2.90957,4.4567 5.44922,4.17383 -0.31412,2.78345 2.06362,5.49101 4.86753,5.51701 0.71209,-0.21443 0.64488,0.24553 0.61685,0.79745 0.13703,2.72397 2.77532,4.97793 5.48828,4.67578 -0.3132,2.82674 2.15549,5.55045 4.99805,5.51172 0.76238,-0.28362 0.37629,0.52667 0.50195,0.94726 0.2258,2.65855 2.81952,4.80959 5.47656,4.51367 -0.28568,2.68833 1.9077,5.31843 4.60938,5.49219 0.47796,0.0487 1.12242,-0.195 0.86718,0.54688 0.0232,1.63863 0.91049,3.20078 2.26172,4.11328 -5.15828,5.16007 -10.31584,10.32087 -15.47461,15.48046 2.78451,2.78451 5.56901,5.56902 8.35352,8.35352 -18.12532,18.11069 -36.22447,36.24847 -54.36614,54.34223 -6.57761,5.94114 -15.48268,9.5245 -24.40535,8.9234 -8.01172,-0.49655 -15.49712,-4.12963 -21.82309,-8.90645 -5.44233,-4.03775 -9.97643,-9.10868 -14.80247,-13.82808 -30.6608,-30.6652 -61.33444,-61.31837 -91.98721,-91.99108 -4.697371,-5.61597 -8.110466,-12.32682 -9.824726,-19.44822 -1.694987,-7.06499 -1.290794,-14.61618 1.233348,-21.43566 3.346149,-9.25155 9.867658,-16.98925 17.225468,-23.35824 10.10695,-8.68946 21.85005,-15.24144 33.88884,-20.84673 6.56525,-3.03094 13.26749,-5.75898 20.05078,-8.26172 2.93297,2.93357 5.86556,5.86752 8.79883,8.80079 18.83854,-18.83855 37.67708,-37.67709 56.51562,-56.51563 -8.95729,-8.958072 -17.9138,-17.916928 -26.87109,-26.875 -0.47135,0.471354 -0.94271,0.942708 -1.41406,1.414062 z m 17.99219,25.455078 c -15.40821,15.4069 -30.81641,30.8138 -46.22461,46.2207 -2.31117,-2.31057 -4.62266,-4.62082 -6.9336,-6.93164 -16.00881,5.71629 -31.76724,12.43849 -46.19234,21.50515 -10.12035,6.42324 -19.68758,14.09486 -26.739298,23.88548 -5.502269,7.63071 -9.182743,16.73267 -9.619221,26.18835 -0.581384,10.96245 3.154519,21.86061 9.368334,30.80738 1.599125,2.3342 3.421114,4.51198 5.490155,6.44471 32.6367,32.62723 65.25456,65.27349 97.90304,97.88884 6.9669,6.7981 15.16698,12.67202 24.59135,15.4603 7.90802,2.3908 16.57052,2.21524 24.34582,-0.59973 6.2816,-2.25153 12.04552,-5.97042 16.6101,-10.84628 19.16208,-19.16269 38.32409,-38.32545 57.4862,-57.4881 -2.7858,-2.78581 -5.57161,-5.57162 -8.35742,-8.35743 6.42715,-6.42896 12.85372,-12.85852 19.28125,-19.2871 -25.28609,-25.30037 -50.5916,-50.58146 -75.88086,-75.87891 2.55339,-2.55143 5.10677,-5.10287 7.66016,-7.6543 24.88252,24.87545 49.75073,49.76946 74.64453,74.63086 0.88067,-1.28008 1.7615,-2.56004 2.64258,-3.83984 0.67413,0.55692 1.3477,1.11453 2.02148,1.67187 2.75815,-2.75813 5.51696,-5.51559 8.27539,-8.27343 11.92513,11.92578 23.85026,23.85156 35.77539,35.77734 -3.89515,3.89456 -7.79061,7.78881 -11.68554,11.68359 12.7351,12.77731 25.50955,25.5155 38.25876,38.27877 12.86951,12.86504 25.73793,25.74164 38.60061,38.60209 -2.55273,2.55404 -5.10547,5.10808 -7.6582,7.66211 -19.6854,-19.71576 -39.39678,-39.40493 -59.08996,-59.11272 -6.0606,-6.01199 -12.0762,-12.07001 -18.12098,-18.09822 -1.18014,1.72214 -2.3606,3.44406 -3.54101,5.16602 -0.59693,-0.59872 -0.99257,0.0157 -1.41574,0.46412 -4.66114,4.66276 -9.32317,9.32463 -13.98465,13.98705 -1.70058,-1.69982 -3.40155,-3.39923 -5.10157,-5.09961 -1.56498,1.6724 -3.21993,3.28549 -4.73067,4.99317 -7.79977,19.69523 -17.70253,38.68062 -30.61308,55.53027 -12.2697,15.96069 -27.48933,30.2224 -45.57502,39.46051 -3.65539,1.85487 -7.55042,3.54958 -11.35076,4.84808 -2.74499,0.96634 -5.56879,1.68708 -8.41939,2.2555 -3.71099,0.93202 -7.724,1.67218 -11.62831,2.11643 -2.57277,0.30434 -5.3916,0.51116 -8.07715,0.57391 -2.10595,0.0617 -4.21348,0.0298 -6.31851,-0.0494 -0.4456,-0.0291 -1.26542,-0.0682 -1.85434,-0.10114 -6.31577,-0.40143 -12.58444,-1.45606 -18.70425,-3.06097 -0.87665,-0.23379 -2.02666,-0.54622 -3.00065,-0.83622 -2.10633,-0.61407 -4.43506,-1.37773 -6.60381,-2.16241 -2.38456,-0.85904 -4.7742,-1.81683 -7.02343,-2.7961 -2.84006,-1.22804 -5.64841,-2.57867 -8.33305,-3.97285 -14.1366,-7.38928 -27.02612,-17.06688 -38.4309,-28.19532 -2.24244,-2.16531 -4.33108,-4.4813 -6.47302,-6.74191 -23.23611,-23.25071 -46.494194,-46.48053 -69.716582,-69.74429 -3.595695,-3.93602 -7.017973,-8.03128 -10.229107,-12.28723 -0.774259,-1.02923 -1.680559,-2.26446 -2.482549,-3.38766 -9.250312,-12.96637 -16.527636,-27.699 -20.266018,-43.31376 -0.554601,-2.26067 -1.085826,-4.87691 -1.483855,-7.15209 -0.300488,-1.78671 -0.565059,-3.54168 -0.786909,-5.39224 -0.46953,-3.82966 -0.728802,-7.74157 -0.783639,-11.52455 -0.08381,-5.39334 0.247211,-10.84223 0.937475,-16.12594 1.854523,-14.04563 6.259326,-27.74313 12.859636,-40.27563 0.631059,-1.1722 1.378552,-2.55308 2.108506,-3.7758 1.498313,-2.61363 3.249965,-5.06599 4.826472,-7.63045 7.786411,-11.94699 18.756678,-21.57159 30.952992,-28.83805 8.76975,-5.2416 18.175845,-9.35879 27.830778,-12.66977 0.75311,-0.24627 1.76336,-0.5867 2.61524,-0.86914 1.06789,-0.33733 2.38199,-0.76456 3.55339,-1.11006 9.71707,-2.95116 19.86035,-5.17916 29.96845,-6.8002 16.11778,-2.57213 32.38312,-3.7284 48.71253,-3.69716 0.65246,0.15449 1.11766,-0.14614 1.49649,-0.65665 6.01354,-6.01419 12.02708,-12.028379 18.04062,-18.042568 5.52409,5.524739 11.04818,11.049479 16.57227,16.574218 z M 488.05078,329.875 c -0.89193,0.89062 -1.78385,1.78125 -2.67578,2.67188 -0.50101,-0.52685 -1.00342,-0.96801 -1.5,-1.47461 0.89518,-0.89519 1.79036,-1.79037 2.68555,-2.68555 0.49674,0.49609 0.99349,0.99219 1.49023,1.48828 z m -83.26172,82.16797 c 0.75638,0.41095 0.3789,0.83775 -0.15802,1.25424 -0.65631,0.65679 -1.31262,1.31358 -1.96893,1.97037 -0.49675,-0.49675 -0.99349,-0.99349 -1.49023,-1.49024 0.89192,-0.89192 1.78385,-1.78385 2.67578,-2.67578 0.3138,0.3138 0.6276,0.62761 0.9414,0.94141 z" />
  <path
     id="path976"
     style="fill:#231f20;fill-opacity:1;fill-rule:nonzero;stroke:none;stroke-width:0.112167"
     d="m 377.91406,294.61719 c -3.99093,3.95372 -7.98135,7.90797 -11.97265,11.86133 1.97475,1.97186 3.94859,3.94463 5.92187,5.91796 4.43703,-4.43731 8.87156,-8.87713 13.3086,-13.31445 -1.94623,-1.95742 -3.89362,-3.91368 -5.83985,-5.87109 -0.47265,0.46875 -0.94531,0.9375 -1.41797,1.40625 z" />
  <path
     id="path978"
     style="fill:#231f20;fill-opacity:1;fill-rule:nonzero;stroke:none;stroke-width:0.112167"
     d="m 340.05859,251.10352 c -0.38671,0.56184 -0.77343,1.12369 -1.16015,1.68554 -0.44084,-0.22984 -0.88602,-1.34913 -1.32352,-0.89731 -4.32812,4.40809 -8.6549,8.81748 -12.98117,13.22739 1.87442,1.87427 3.74811,3.74928 5.62109,5.625 5.58835,-5.57767 11.17478,-11.15725 16.75977,-16.73828 -1.89294,-1.56727 -3.78499,-3.13562 -5.67773,-4.70313 -0.41277,0.60026 -0.82553,1.20053 -1.23829,1.80079 z" />
  <path
     d="m 189.51009,388.46888 c 7.21793,-7.21905 7.73278,-18.41329 1.14298,-25.00196 L 99.452576,272.26417 c -6.586429,-6.58419 -17.780667,-6.07046 -24.999716,1.14859 v 0 c -7.222415,7.22017 -7.736138,18.41441 -1.148587,25.00083 l 91.201617,91.20051 c 6.58643,6.58868 17.78067,6.07607 25.0042,-1.14522 v 0"
     style="fill:#fbf5ac;fill-opacity:1;fill-rule:nonzero;stroke:none;stroke-width:0.112167"
     id="path980" />
  <path
     id="path982"
     style="fill:#231f20;fill-opacity:1;fill-rule:nonzero;stroke:none;stroke-width:0.112167"
     d="m 86.931641,263.78516 c -8.18592,0.38868 -15.842217,5.53102 -19.565543,12.78902 -3.33698,6.31812 -3.541706,14.37538 0.123316,20.60309 1.793894,3.17669 4.691625,5.47737 7.170355,8.0861 29.144281,29.13487 58.268761,58.29008 87.425421,87.41224 4.64497,4.51291 11.56315,6.31157 17.87033,5.07037 8.51914,-1.5418 15.84933,-8.18056 18.26332,-16.48946 1.9184,-6.2725 0.88464,-13.5007 -3.20756,-18.7054 -1.85533,-2.29169 -4.09834,-4.23154 -6.13437,-6.3579 -29.00258,-28.99374 -57.98648,-58.00665 -87.00074,-86.98841 -3.940484,-3.81123 -9.497747,-5.7155 -14.944529,-5.41965 z m 1.736328,7.75976 c 3.280877,0.12373 6.45542,1.62249 8.641857,4.07155 30.252114,30.26074 60.521764,60.50449 90.762924,90.77587 3.33351,3.40052 4.08455,8.72671 2.54981,13.13247 -2.09842,6.41355 -8.64458,11.20117 -15.4508,10.80373 -3.27584,-0.14829 -6.41902,-1.68578 -8.59136,-4.13486 -30.24268,-30.25041 -60.50104,-60.48556 -90.733915,-90.74552 -3.296579,-3.38289 -4.033972,-8.65756 -2.53564,-13.03367 2.088826,-6.40638 8.552126,-11.19831 15.357124,-10.86957 z" />
</svg>
