<?xml version="1.0" encoding="UTF-8" standalone="no"?>
<svg
   width="512"
   height="512"
   version="1.1"
   id="svg20"
   sodipodi:docname="icon.svg"
   inkscape:version="1.2.2 (b0a8486541, 2022-12-01)"
   xmlns:inkscape="http://www.inkscape.org/namespaces/inkscape"
   xmlns:sodipodi="http://sodipodi.sourceforge.net/DTD/sodipodi-0.dtd"
   xmlns="http://www.w3.org/2000/svg"
   xmlns:svg="http://www.w3.org/2000/svg">
  <defs
     id="defs6" />
  <sodipodi:namedview
     id="namedview4"
     pagecolor="#505050"
     bordercolor="#ffffff"
     borderopacity="1"
     inkscape:pageshadow="0"
     inkscape:pageopacity="0"
     inkscape:pagecheckerboard="1"
     showgrid="true"
     inkscape:zoom="0.61526577"
     inkscape:cx="380.32345"
     inkscape:cy="373.00954"
     inkscape:window-width="1920"
     inkscape:window-height="1080"
     inkscape:window-x="1920"
     inkscape:window-y="0"
     inkscape:window-maximized="1"
     inkscape:current-layer="svg20"
     inkscape:showpageshadow="0"
     inkscape:deskcolor="#505050">
    <inkscape:grid
       type="xygrid"
       id="grid847"
       spacingx="16"
       spacingy="16"
       empspacing="4"
       empcolor="#ff3f3f"
       empopacity="0.25098039"
       color="#0098ff"
       opacity="0.44705882" />
  </sodipodi:namedview>
  <circle
     id="path887"
     style="display:inline;fill:#457288;stroke:none;fill-opacity:1"
     inkscape:label="Circle"
     r="224"
     cy="256"
     cx="256" />
  <g
     id="g3256"
     transform="matrix(1.1216671,0,0,-1.1216671,-975.76731,577.02941)">
    <path
       d="m 1091.6409,347.64439 -14.668,10.408 -4.424,-4.426 -2.944,2.941 22.971,22.957 2.934,-2.937 -4.416,-4.416 10.409,-14.668 -9.862,-9.859"
       style="fill:#ffffff;fill-opacity:1;fill-rule:nonzero;stroke:none;stroke-width:0.1"
       id="path186" />
    <path
       d="m 1095.5099,376.58739 -2.934,2.937 -22.971,-22.957 2.944,-2.941 4.424,4.426 14.668,-10.408 9.862,9.859 -10.409,14.668 z m -3.548,-32.766 -14.67,10.409 -4.739,-4.737 -7.091,7.07 27.115,27.108 7.071,-7.084 -4.736,-4.735 10.411,-14.666 -13.361,-13.365"
       style="fill:#000000;fill-opacity:1;fill-rule:nonzero;stroke:none;stroke-width:0.1"
       id="path188" />
    <path
       d="m 1149.6759,290.24639 -0.37,0.356 -52.632,52.63 9.351,9.346 61.271,-61.274 0.604,-0.592 3.184,-3.184 -9.264,-9.438 -12.144,12.156"
       style="fill:#ffffff;fill-opacity:1;fill-rule:nonzero;stroke:none;stroke-width:0.1"
       id="path968" />
    <path
       d="m 1302.6509,215.44039 -0.831,0.832 -29.745,-29.748 4.556,-4.548 -9.35,-9.354 -4.557,4.559 -29.74,-29.746 0.833,-0.833 -4.905,-4.911 -3.851,3.852 4.907,4.906 0.84,-0.838 29.736,29.753 -22.695,22.713 -0.454,0.435 -23.899,23.92 -0.567,0.544 -11.476,11.474 9.347,9.351 0.835,-0.841 5.216,-5.201 23.902,-23.91 0.554,-0.545 4.455,-4.468 0.445,-0.432 14.247,-14.258 0.44,-0.43 9.006,-9.012 29.728,29.744 -0.828,0.837 4.91,4.907 3.849,-3.847 -4.908,-4.905"
       style="fill:#ffffff;fill-opacity:1;fill-rule:nonzero;stroke:none;stroke-width:0.1"
       id="path970" />
    <path
       d="m 1195.8889,237.09339 -0.81,0.398 -13.521,-13.523 -4.52,4.518 -2.687,-2.802 -0.106,-0.266 c -33.108,-83.298 -85.44,-91.361 -85.966,-91.433 -6.753,-1.743 -13.751,-2.634 -20.734,-2.634 -38.224,0 -69.00299,26.648 -80.46299,38.106 -2.563,2.567 -4.074,4.283 -4.349,4.6 l -62.65,62.66 c -62.8232,68.633 -15.971,133.714 -15.49,134.363 27.836,46.389 100.29799,51.402 130.16099,51.402 l 0.941,-0.005 17.407,17.408 17.297,-17.297 -43.733,-43.728 -6.642,6.64 -0.878,-0.315 c -41.00099,-14.833 -64.37899,-33.211 -69.48799,-54.628 -4.958,-20.799 9.421,-36.403 10.035,-37.059 l 88.27499,-88.274 c 10.252,-10.252 20.844,-15.451 31.48,-15.451 l 0.511,0.004 c 13.994,0.215 22.987,9.5 23.363,9.896 l 51.263,51.265 -7.45,7.451 17.189,17.195 12.294,12.278 7.49,7.488 34.416,-34.417 -10.42,-10.42 -9.401,-9.314 -2.814,-4.106"
       style="fill:#fd6067;fill-opacity:1;fill-rule:nonzero;stroke:none;stroke-width:0.1"
       id="path972" />
    <path
       d="m 1298.7999,219.28539 0.828,-0.837 -29.728,-29.744 -9.006,9.012 -0.44,0.43 -14.247,14.258 -0.445,0.432 -4.455,4.468 -0.554,0.545 -23.902,23.91 -5.216,5.201 -0.835,0.841 v 0 l -2.696,2.712 10.42,10.42 -34.416,34.417 -7.49,-7.488 -2.051,1.698 -2.249,-3.265 -1.234,1.233 h 10e-4 l -3.185,3.184 -0.604,0.592 -61.271,61.274 -9.351,-9.346 52.632,-52.63 0.37,-0.356 12.144,-12.156 v 0 l 2.504,-2.506 -17.189,-17.195 7.45,-7.451 -51.263,-51.265 c -0.376,-0.396 -9.369,-9.681 -23.363,-9.896 l -0.511,-0.004 c -10.636,0 -21.228,5.199 -31.48,15.451 l -88.27499,88.274 c -0.614,0.656 -14.993,16.26 -10.035,37.059 5.109,21.417 28.487,39.795 69.48799,54.628 l 0.878,0.315 6.642,-6.64 43.733,43.728 -17.297,17.297 -17.407,-17.408 -0.941,0.005 c -29.863,0 -102.32499,-5.013 -130.16099,-51.402 -0.481,-0.649 -47.3332,-65.73 15.49,-134.363 l 62.65,-62.66 c 0.275,-0.317 1.786,-2.033 4.349,-4.6 11.46,-11.458 42.23899,-38.106 80.46299,-38.106 6.983,0 13.981,0.891 20.734,2.634 0.526,0.072 52.858,8.135 85.966,91.433 l 0.106,0.266 2.687,2.802 4.52,-4.518 13.521,13.523 0.81,-0.398 2.814,4.106 2.75,-2.749 v 0 l 11.476,-11.474 0.567,-0.544 23.899,-23.92 0.454,-0.435 22.695,-22.713 -29.736,-29.753 -0.84,0.838 -4.907,-4.906 3.851,-3.852 4.905,4.911 -0.833,0.833 29.74,29.746 4.557,-4.559 9.35,9.354 -4.556,4.548 29.745,29.748 0.831,-0.832 4.908,4.905 -3.849,3.847 z m 3.851,-7.99 -0.829,0.834 -25.603,-25.601 4.558,-4.548 -13.493,-13.497 -4.557,4.555 -25.599,-25.603 0.83,-0.833 -9.044,-9.048 -7.994,7.994 9.048,9.044 0.838,-0.839 25.599,25.611 -3.444,3.442 -0.975,-1.431 -0.28,-0.325 c -0.52,-0.52 -1.212,-0.807 -1.947,-0.807 -0.558,0 -1.096,0.168 -1.518,0.455 l -0.425,0.352 c -0.932,0.934 -1.069,2.409 -0.328,3.506 l 1.255,1.818 0.137,0.512 -0.804,0.809 -0.911,-1.325 -0.349,-0.431 c -0.519,-0.52 -1.21,-0.807 -1.947,-0.807 -0.559,0 -1.099,0.168 -1.517,0.452 l -0.428,0.358 c -0.934,0.934 -1.071,2.405 -0.331,3.495 l 1.256,1.834 0.133,0.513 -0.803,0.807 -0.93,-1.349 -0.317,-0.393 c -0.515,-0.529 -1.208,-0.82 -1.95,-0.82 -0.559,0 -1.101,0.168 -1.524,0.452 l -0.431,0.357 c -0.931,0.933 -1.068,2.403 -0.328,3.496 l 1.259,1.829 0.135,0.508 -0.792,0.82 -0.921,-1.335 -0.356,-0.425 c -0.518,-0.522 -1.211,-0.808 -1.948,-0.808 -0.552,0 -1.084,0.164 -1.494,0.445 l -0.451,0.368 c -0.937,0.94 -1.074,2.406 -0.322,3.492 l 1.253,1.833 0.141,0.507 -0.807,0.8 -0.939,-1.363 -0.321,-0.389 c -0.523,-0.521 -1.217,-0.808 -1.952,-0.808 -0.555,0 -1.087,0.165 -1.5,0.447 l -0.441,0.365 c -0.938,0.937 -1.075,2.404 -0.325,3.493 l 1.251,1.84 0.139,0.506 -0.803,0.808 -0.904,-1.324 -0.356,-0.432 c -0.52,-0.519 -1.211,-0.803 -1.951,-0.803 -0.552,0 -1.088,0.164 -1.502,0.439 l -0.442,0.365 c -0.932,0.933 -1.069,2.406 -0.328,3.499 l 1.52,2.206 -0.933,0.951 -1.028,-1.499 -0.232,-0.264 c -0.522,-0.522 -1.213,-0.808 -1.949,-0.808 -0.556,0 -1.091,0.166 -1.504,0.449 l -0.436,0.363 c -0.921,0.92 -1.057,2.398 -0.327,3.502 l 1.25,1.826 0.14,0.505 -0.803,0.809 -0.957,-1.396 -0.309,-0.358 c -0.519,-0.52 -1.213,-0.806 -1.952,-0.806 -0.554,0 -1.085,0.164 -1.495,0.441 l -0.442,0.365 c -0.934,0.932 -1.069,2.406 -0.321,3.503 l 1.253,1.829 0.133,0.517 -0.808,0.802 -0.965,-1.413 -0.297,-0.346 c -0.52,-0.521 -1.209,-0.807 -1.943,-0.807 -0.558,0 -1.096,0.168 -1.514,0.456 l -0.43,0.356 c -0.943,0.944 -1.08,2.409 -0.323,3.487 l 1.257,1.834 0.133,0.517 -0.812,0.796 -0.892,-1.297 -0.363,-0.453 c -0.518,-0.518 -1.208,-0.804 -1.943,-0.804 -0.56,0 -1.1,0.168 -1.519,0.454 l -0.427,0.358 c -0.94,0.938 -1.076,2.402 -0.328,3.488 l 1.519,2.216 -0.938,0.943 -0.873,-1.28 -0.384,-0.482 c -0.518,-0.518 -1.209,-0.803 -1.944,-0.803 -0.558,0 -1.098,0.168 -1.518,0.453 l -0.423,0.353 c -0.929,0.93 -1.067,2.407 -0.334,3.507 l 1.518,2.21 -0.954,0.948 -0.898,-1.321 -0.363,-0.438 c -0.485,-0.48 -1.125,-0.753 -1.802,-0.769 l -0.224,-0.006 -14.276,-14.278 -4.568,4.565 -0.318,-0.787 c -33.966,-84.754 -85.586,-92.199 -87.837,-92.489 -7.014,-1.808 -14.21,-2.724 -21.388,-2.724 -39.206,0 -70.71599,27.269 -82.44299,38.991 -2.208,2.207 -3.638,3.787 -4.159,4.383 l 0.014,0.032 -62.895,62.892 c -63.966,69.882 -16.339,137.302 -15.804,138.015 28.438,47.412 101.84599,52.654 132.08799,52.706 h 0.232 l 18.614,18.611 21.434,-21.438 -47.863,-47.865 -7.395,7.396 -0.336,-0.124 c -39.23299,-14.379 -61.58099,-31.898 -66.42299,-52.07 -4.515,-18.827 8.683,-33.728 9.274,-34.383 l 88.24799,-88.243 c 9.682,-9.685 19.585,-14.596 29.424,-14.596 l 0.396,0.004 c 12.875,0.173 21.288,8.933 21.359,9.01 l 49.232,49.229 -7.448,7.447 14.723,14.73 -1.189,0.109 c -0.479,0.044 -0.918,0.204 -1.264,0.445 l -0.429,0.356 c -0.93,0.927 -1.066,2.403 -0.325,3.505 l 1.253,1.816 0.141,0.509 -0.81,0.804 -0.887,-1.302 -0.379,-0.445 c -0.52,-0.52 -1.211,-0.806 -1.945,-0.806 -0.558,0 -1.095,0.168 -1.514,0.458 l -0.427,0.348 c -0.926,0.931 -1.067,2.407 -0.334,3.503 l 1.261,1.837 0.137,0.51 -0.806,0.807 -0.991,-1.454 -0.272,-0.307 c -0.518,-0.518 -1.21,-0.804 -1.944,-0.804 -0.557,0 -1.097,0.166 -1.515,0.448 l -0.432,0.36 c -0.932,0.932 -1.069,2.403 -0.328,3.495 l 1.255,1.83 0.14,0.507 -0.804,0.805 -0.881,-1.281 -0.38,-0.466 c -0.518,-0.524 -1.209,-0.815 -1.946,-0.815 -0.553,0 -1.084,0.166 -1.5,0.451 l -0.448,0.368 c -0.931,0.929 -1.068,2.395 -0.325,3.488 l 1.255,1.833 0.135,0.513 -0.799,0.799 -1.148,-1.636 -0.123,-0.128 c -0.524,-0.507 -1.212,-0.788 -1.942,-0.788 -0.56,0 -1.098,0.167 -1.516,0.454 l -0.426,0.349 c -0.935,0.935 -1.071,2.408 -0.325,3.502 l 1.251,1.828 0.139,0.511 -0.803,0.793 -0.381,-0.54 -0.892,-1.218 c -0.518,-0.509 -1.204,-0.79 -1.934,-0.79 -0.559,0 -1.099,0.168 -1.519,0.456 l -0.429,0.354 c -0.932,0.932 -1.069,2.4 -0.328,3.491 l 1.521,2.217 -0.954,0.95 -1.009,-1.465 -0.237,-0.268 c -0.522,-0.534 -1.217,-0.828 -1.959,-0.828 -0.558,0 -1.097,0.17 -1.516,0.458 l -0.429,0.354 c -0.934,0.933 -1.07,2.406 -0.326,3.497 l 1.251,1.834 0.137,0.51 -0.806,0.8 -0.965,-1.407 -0.281,-0.326 c -0.52,-0.532 -1.217,-0.824 -1.959,-0.824 -0.557,0 -1.095,0.168 -1.516,0.454 l -0.427,0.354 c -0.936,0.938 -1.073,2.412 -0.328,3.503 l 1.251,1.827 0.139,0.512 -0.807,0.8 -0.97,-1.417 -0.281,-0.339 c -0.516,-0.517 -1.208,-0.802 -1.945,-0.802 -0.556,0 -1.094,0.167 -1.514,0.445 l -0.443,0.364 c -0.932,0.934 -1.067,2.404 -0.321,3.497 l 1.253,1.835 0.135,0.514 -0.813,0.798 -0.869,-1.274 -0.363,-0.452 c -0.516,-0.54 -1.213,-0.839 -1.961,-0.839 -0.553,0 -1.09,0.168 -1.51,0.448 l -0.444,0.366 c -0.933,0.935 -1.069,2.407 -0.319,3.498 l 1.252,1.828 0.131,0.518 -0.792,0.786 -1.255,-1.718 c -0.52,-0.536 -1.216,-0.834 -1.961,-0.834 -0.556,0 -1.092,0.168 -1.51,0.456 l -0.432,0.358 c -0.938,0.939 -1.077,2.411 -0.325,3.499 l 1.253,1.824 0.133,0.514 -0.802,0.808 -0.995,-1.446 -0.264,-0.313 c -0.522,-0.519 -1.213,-0.805 -1.947,-0.805 -0.56,0 -1.098,0.167 -1.517,0.458 l -0.429,0.353 c -0.941,0.943 -1.08,2.408 -0.328,3.49 l 1.262,1.841 0.135,0.517 -0.816,0.792 -0.93,-1.36 -0.326,-0.391 c -0.522,-0.518 -1.214,-0.805 -1.949,-0.805 -0.558,0 -1.094,0.167 -1.51,0.449 l -0.427,0.356 c -0.93,0.934 -1.069,2.407 -0.33,3.5 l 1.512,2.219 -4.763,4.763 13.49,13.484 2.255,-2.256 0.946,1.375 c 0.418,0.604 1.048,1.011 1.774,1.146 0.162,0.029 0.328,0.043 0.49,0.043 0.562,0 1.1,-0.169 1.52,-0.461 l 0.422,-0.348 c 0.937,-0.936 1.072,-2.406 0.321,-3.495 l -1.256,-1.832 -0.131,-0.517 0.808,-0.807 0.939,1.381 c 0.517,0.738 1.369,1.18 2.275,1.18 0.559,0 1.094,-0.166 1.509,-0.447 l 0.427,-0.356 c 0.935,-0.933 1.071,-2.411 0.323,-3.51 l -1.249,-1.817 -0.136,-0.512 0.808,-0.805 0.933,1.359 c 0.416,0.606 1.04,1.013 1.758,1.148 0.175,0.035 0.352,0.051 0.525,0.051 0.551,0 1.088,-0.168 1.511,-0.458 l 0.418,-0.345 c 0.939,-0.939 1.078,-2.41 0.328,-3.499 l -1.259,-1.831 -0.136,-0.512 0.808,-0.804 0.939,1.367 c 0.516,0.742 1.366,1.186 2.276,1.186 0.559,0 1.099,-0.168 1.519,-0.454 l 0.422,-0.349 c 0.941,-0.941 1.075,-2.411 0.314,-3.502 l -1.251,-1.824 -0.139,-0.511 0.806,-0.799 0.953,1.375 c 0.521,0.732 1.372,1.169 2.276,1.169 0.555,0 1.087,-0.163 1.5,-0.443 l 0.429,-0.353 c 0.935,-0.935 1.07,-2.411 0.326,-3.507 l -1.251,-1.82 -0.135,-0.508 0.801,-0.819 0.935,1.376 c 0.518,0.742 1.37,1.188 2.279,1.188 0.556,-0.002 1.092,-0.167 1.508,-0.449 l 0.431,-0.354 c 0.923,-0.925 1.06,-2.406 0.33,-3.511 l -1.26,-1.821 -0.139,-0.515 0.811,-0.801 0.942,1.365 c 0.514,0.746 1.364,1.191 2.275,1.191 0.556,0 1.094,-0.168 1.512,-0.451 l 0.42,-0.349 c 0.931,-0.934 1.071,-2.411 0.328,-3.507 l -1.52,-2.203 0.956,-0.956 0.938,1.382 c 0.518,0.736 1.368,1.175 2.273,1.175 0.554,0 1.083,-0.164 1.496,-0.45 l 0.443,-0.358 c 0.936,-0.938 1.073,-2.408 0.323,-3.495 l -1.251,-1.825 -0.134,-0.51 0.803,-0.819 0.943,1.392 c 0.515,0.731 1.359,1.169 2.262,1.169 0.56,0 1.102,-0.168 1.524,-0.456 l 0.415,-0.338 c 0.938,-0.939 1.074,-2.417 0.323,-3.513 l -1.514,-2.203 0.938,-0.943 0.941,1.368 c 0.41,0.607 1.034,1.016 1.758,1.151 0.172,0.033 0.343,0.049 0.514,0.049 0.552,0 1.088,-0.168 1.511,-0.456 l 0.427,-0.349 c 0.934,-0.937 1.071,-2.413 0.325,-3.506 l -1.256,-1.827 -0.136,-0.513 0.812,-0.807 0.937,1.385 c 0.517,0.733 1.365,1.171 2.273,1.171 0.557,0 1.095,-0.164 1.511,-0.445 l 0.425,-0.35 c 0.939,-0.941 1.076,-2.415 0.326,-3.507 l -1.255,-1.82 -0.134,-0.516 0.813,-0.797 0.934,1.361 c 0.518,0.742 1.368,1.184 2.277,1.184 0.558,0 1.094,-0.166 1.512,-0.451 l 0.419,-0.346 c 0.94,-0.94 1.075,-2.41 0.32,-3.499 l -1.25,-1.83 -0.131,-0.517 0.812,-0.794 0.935,1.362 c 0.42,0.604 1.044,1.007 1.76,1.137 0.176,0.034 0.351,0.051 0.524,0.051 0.551,0 1.085,-0.168 1.503,-0.457 l 0.42,-0.346 c 0.932,-0.934 1.067,-2.412 0.326,-3.51 l -1.251,-1.821 -0.143,-0.51 0.814,-0.796 0.942,1.369 c 0.519,0.734 1.371,1.174 2.276,1.174 0.556,0 1.091,-0.165 1.631,-0.55 l 0.392,-0.314 6.961,6.962 38.562,-38.563 -6.582,-6.582 -0.277,-0.514 0.398,-0.396 c 0.928,-0.928 1.063,-2.408 0.325,-3.511 l -1.254,-1.821 -0.139,-0.511 0.809,-0.806 0.944,1.381 c 0.518,0.735 1.368,1.175 2.276,1.175 0.558,0 1.094,-0.166 1.508,-0.445 l 0.427,-0.356 c 0.93,-0.932 1.065,-2.408 0.326,-3.505 l -1.255,-1.817 -0.131,-0.512 0.797,-0.824 0.943,1.386 c 0.516,0.739 1.368,1.18 2.275,1.18 0.558,0 1.094,-0.166 1.512,-0.451 l 0.425,-0.35 c 0.924,-0.928 1.058,-2.404 0.321,-3.504 l -1.252,-1.817 -0.134,-0.516 0.809,-0.805 0.933,1.365 c 0.517,0.744 1.366,1.187 2.274,1.187 0.559,0 1.099,-0.167 1.52,-0.455 l 0.418,-0.345 c 0.927,-0.927 1.063,-2.403 0.327,-3.503 l -1.252,-1.826 -0.143,-0.51 0.814,-0.796 0.945,1.379 c 0.517,0.73 1.364,1.168 2.264,1.168 0.559,0 1.095,-0.168 1.511,-0.452 l 0.428,-0.354 c 0.933,-0.933 1.068,-2.405 0.321,-3.498 l -1.515,-2.211 0.932,-0.945 0.945,1.373 c 0.516,0.744 1.366,1.187 2.276,1.187 0.557,0 1.095,-0.166 1.515,-0.452 l 0.42,-0.347 c 0.936,-0.936 1.071,-2.412 0.324,-3.506 l -1.248,-1.821 -0.137,-0.503 0.791,-0.823 0.947,1.376 c 0.517,0.744 1.368,1.187 2.279,1.187 0.558,0 1.095,-0.165 1.514,-0.451 l 0.42,-0.35 c 0.945,-0.943 1.08,-2.413 0.321,-3.504 l -1.248,-1.822 -0.128,-0.509 0.794,-0.823 0.953,1.392 c 0.515,0.735 1.362,1.175 2.267,1.175 0.556,0 1.09,-0.167 1.506,-0.449 l 0.431,-0.354 c 0.937,-0.94 1.072,-2.41 0.319,-3.497 l -1.253,-1.824 -0.132,-0.513 0.801,-0.813 0.955,1.39 c 0.516,0.729 1.362,1.167 2.265,1.165 0.556,0 1.093,-0.164 1.506,-0.447 l 0.432,-0.353 c 0.935,-0.936 1.071,-2.41 0.324,-3.505 l -1.254,-1.819 -0.134,-0.512 0.8,-0.806 0.944,1.357 c 0.407,0.604 1.031,1.011 1.76,1.146 0.173,0.032 0.348,0.05 0.522,0.05 0.548,0 1.084,-0.168 1.503,-0.454 l 0.423,-0.348 c 0.925,-0.925 1.062,-2.406 0.332,-3.51 l -1.256,-1.813 -0.138,-0.513 0.808,-0.814 0.94,1.382 c 0.516,0.735 1.367,1.174 2.271,1.174 0.56,0 1.098,-0.168 1.519,-0.456 l 0.415,-0.339 c 0.932,-0.934 1.071,-2.413 0.332,-3.51 l -1.52,-2.202 5.953,-5.966 25.602,25.613 -0.828,0.835 9.037,9.043 7.992,-7.992 -9.047,-9.046"
       style="fill:#000000;fill-opacity:1;fill-rule:nonzero;stroke:none;stroke-width:0.1"
       id="path974" />
    <path
       d="m 1198.7029,241.19939 9.401,9.314 2.696,-2.712 -9.347,-9.351 -2.75,2.749"
       style="fill:#000000;fill-opacity:1;fill-rule:nonzero;stroke:none;stroke-width:0.1"
       id="path976" />
    <path
       d="m 1161.8199,278.09039 9.264,9.438 1.234,-1.233 2.249,3.265 2.051,-1.698 -12.294,-12.278 -2.504,2.506"
       style="fill:#000000;fill-opacity:1;fill-rule:nonzero;stroke:none;stroke-width:0.1"
       id="path978" />
    <path
       d="m 1038.8799,168.10739 c 6.435,6.436 6.894,16.416 1.019,22.29 l -81.30799,81.31 c -5.872,5.87 -15.852,5.412 -22.288,-1.024 v 0 c -6.439,-6.437 -6.897,-16.417 -1.024,-22.289 l 81.30899,-81.308 c 5.872,-5.874 15.852,-5.417 22.292,1.021 v 0"
       style="fill:#fbf5ac;fill-opacity:1;fill-rule:nonzero;stroke:none;stroke-width:0.1"
       id="path980" />
    <path
       d="m 1026.7959,164.64539 c -3.476,0 -6.678,1.288 -9.018,3.63 l -81.30999,81.308 c -2.502,2.501 -3.785,5.934 -3.614,9.667 0.173,3.79 1.82,7.428 4.637,10.244 2.956,2.957 6.927,4.652 10.894,4.652 3.475,0 6.679,-1.288 9.019,-3.629 l 81.30799,-81.31 c 5.207,-5.208 4.75,-14.141 -1.021,-19.91 -2.957,-2.957 -6.929,-4.652 -10.895,-4.652 z m -78.41099,112.863 c -4.852,0 -9.69,-2.054 -13.271,-5.635 -3.411,-3.411 -5.407,-7.839 -5.619,-12.469 -0.216,-4.687 1.416,-9.02 4.596,-12.2 l 81.30799,-81.308 c 2.977,-2.975 7.023,-4.615 11.397,-4.615 4.853,0 9.689,2.056 13.271,5.637 7.084,7.081 7.54,18.147 1.022,24.668 l -81.30799,81.31 c -2.975,2.974 -7.023,4.612 -11.396,4.612"
       style="fill:#231f20;fill-opacity:1;fill-rule:nonzero;stroke:none;stroke-width:0.1"
       id="path982" />
  </g>
</svg>
